<svg width="246" height="88" viewBox="0 0 246 88" fill="none" xmlns="http://www.w3.org/2000/svg">
<path d="M66.2012 46.0279L58.0319 46.0159C57.9303 46.5896 57.8107 47.1573 57.6733 47.7251L57.6554 47.8028L57.6374 47.8804C56.9323 50.5697 55.8088 53.0677 54.2908 55.3087C52.7729 57.5498 50.8844 59.498 48.6793 61.0936C44.3645 64.2191 39.0159 65.8685 33.2072 65.8685C27.3984 65.8685 22.0498 64.2191 17.735 61.0936C15.5299 59.498 13.6414 57.5498 12.1235 55.3087C10.6056 53.0677 9.48206 50.5697 8.77688 47.8804L8.75895 47.8028L8.74102 47.7251C8.60357 47.1573 8.48405 46.5896 8.38246 46.0159L0.213135 46.0279C0.374489 50.2709 1.19919 54.2868 2.67529 57.998C4.27091 62.002 6.57768 65.5338 9.52987 68.504C12.488 71.4741 15.996 73.7868 19.9641 75.3765C24.0458 77.0139 28.498 77.8386 33.2072 77.8386C37.9163 77.8386 42.3745 77.0079 46.4502 75.3765C50.4183 73.7868 53.9323 71.4741 56.8844 68.504C59.8426 65.5338 62.1494 62.002 63.739 57.998C65.2151 54.2868 66.0458 50.2649 66.2012 46.0279ZM63.739 20.3486C62.1434 16.3446 59.8366 12.8127 56.8844 9.8426C53.9263 6.87248 50.4183 4.55973 46.4502 2.97009C42.3685 1.33264 37.9163 0.507935 33.2072 0.507935C28.498 0.507935 24.0398 1.33861 19.9641 2.97009C15.996 4.55973 12.4821 6.87248 9.52987 9.8426C6.5717 12.8127 4.26493 16.3446 2.67529 20.3486C1.19919 24.0538 0.374489 28.0757 0.213135 32.3187L8.38246 32.3306C8.48405 31.7569 8.60357 31.1892 8.74102 30.6215L8.75895 30.5438L8.77688 30.4661C9.48206 27.7769 10.6056 25.2789 12.1235 23.0378C13.6414 20.7968 15.5299 18.8486 17.735 17.253C22.0498 14.1275 27.3984 12.4781 33.2072 12.4781C39.0159 12.4781 44.3645 14.1275 48.6793 17.253C50.8844 18.8486 52.7729 20.7968 54.2908 23.0378C55.8088 25.2789 56.9323 27.7769 57.6374 30.4661L57.6554 30.5438L57.6733 30.6215C57.8107 31.1892 57.9303 31.7569 58.0319 32.3306L66.2012 32.3187C66.0458 28.0757 65.2151 24.0597 63.739 20.3486ZM43.5757 36.0538C46.3068 41.9701 44.5438 48.49 38.9741 53.0737C33.4044 57.6573 26.6633 58.1295 21.3864 54.3048C20.7829 53.8446 20.2032 53.3546 19.6594 52.8406L26.3167 47.3844L25.0677 45.8605L25.0378 45.8187C24.9542 45.7171 24.8765 45.6095 24.7928 45.502C24.7809 45.484 24.7689 45.4661 24.751 45.4482C24.745 45.4362 24.7331 45.4243 24.7271 45.4183L24.494 45.0956C23.8605 44.2111 23.2988 43.2609 22.8147 42.2569C20.1016 36.3287 21.8825 29.8147 27.4641 25.249C33.0518 20.6832 39.7928 20.235 45.0578 24.0777C45.6494 24.5318 46.2171 25.0099 46.749 25.5239L40.1096 30.9621L41.3287 32.492C41.4123 32.5936 41.496 32.7012 41.5797 32.8147L41.8904 33.239C42.5179 34.0936 43.0856 35.0438 43.5757 36.0538Z" fill="white"/>
<path d="M85.2231 67.99C83.3466 67.4761 81.7629 66.6454 80.4721 65.5039L84.9183 60.1374C85.7669 60.9024 86.753 61.5179 87.8645 61.984C88.9821 62.4561 90.1534 62.6892 91.3845 62.6892C91.9402 62.6892 92.4064 62.6354 92.7709 62.5338C93.1355 62.4322 93.3207 62.2649 93.3207 62.0259C93.3207 61.7629 93.0697 61.5179 92.5737 61.2968C92.0717 61.0757 91.2231 60.8486 90.0219 60.6155C86.8546 60 84.5418 59.1095 83.0896 57.9502C81.6374 56.7908 80.9143 55.3147 80.9143 53.5279C80.9143 52.237 81.3446 51.0119 82.2112 49.8526C83.0777 48.6932 84.4044 47.743 86.1912 46.99C87.9781 46.243 90.1952 45.8665 92.8367 45.8665C95.4183 45.8665 97.5817 46.1773 99.3267 46.7928C101.072 47.4083 102.446 48.1733 103.438 49.0816L99.3028 53.9641C97.9522 52.6135 95.9562 51.9382 93.3207 51.9382C92.5259 51.9382 91.9582 52.0099 91.6056 52.1593C91.253 52.3087 91.0797 52.494 91.0797 52.733C91.0797 53.0856 91.9761 53.3785 93.7629 53.6115C97.1335 54.0836 99.6016 54.8964 101.155 56.0557C102.709 57.2151 103.486 58.8047 103.486 60.8306C103.486 63.1195 102.548 65.0139 100.671 66.5079C98.7948 68.002 95.9502 68.7549 92.1315 68.7549C89.4004 68.7609 87.0996 68.5039 85.2231 67.99ZM125.508 48.0538C127.313 49.5059 128.245 51.2749 128.305 53.3546L118.976 56.0856C119.066 53.8267 118.474 52.6972 117.213 52.6972C116.305 52.6972 115.653 53.0438 115.253 53.731C114.859 54.4183 114.661 55.6613 114.661 57.4482C114.661 59.2111 114.876 60.3944 115.301 61.0099C115.725 61.6255 116.347 61.9362 117.171 61.9362C117.787 61.9362 118.259 61.6912 118.582 61.2071C118.904 60.7231 119.096 59.994 119.155 59.0318L128.221 61.8466C128.221 63.1075 127.791 64.2609 126.924 65.3008C126.058 66.3406 124.797 67.1773 123.141 67.8107C121.486 68.4382 119.508 68.7549 117.225 68.7549C113.06 68.7549 109.898 67.7749 107.741 65.8087C105.584 63.8426 104.508 61.0099 104.508 57.3167C104.508 53.6773 105.572 50.8625 107.699 48.8665C109.827 46.8705 112.827 45.8725 116.699 45.8725C120.763 45.8785 123.703 46.6016 125.508 48.0538ZM131.496 42.3585C130.659 41.7131 130.241 40.6255 130.241 39.1016C130.241 37.5777 130.659 36.49 131.496 35.8446C132.333 35.1992 133.749 34.8765 135.745 34.8765C137.741 34.8765 139.157 35.1992 139.994 35.8446C140.831 36.49 141.249 37.5777 141.249 39.1016C141.249 40.6255 140.831 41.7131 139.994 42.3585C139.157 43.004 137.741 43.3267 135.745 43.3267C133.743 43.3267 132.333 43.004 131.496 42.3585ZM140.801 68.3187H130.677V46.3147H140.801V68.3187ZM167.072 59.2589H153.076C153.225 60.3466 153.53 61.0757 154.002 61.4581C154.468 61.8406 155.173 62.0318 156.112 62.0318C157.546 62.0318 158.43 61.3984 158.753 60.1374L166.892 62.3366C166.39 64.4462 165.171 66.0478 163.217 67.1354C161.263 68.2231 158.896 68.7609 156.112 68.7609C151.946 68.7609 148.785 67.7808 146.627 65.8147C144.47 63.8486 143.394 61.0159 143.394 57.3227C143.394 53.6832 144.458 50.8685 146.586 48.8725C148.713 46.8765 151.713 45.8785 155.586 45.8785C159.369 45.8785 162.267 46.8466 164.275 48.7828C166.283 50.7191 167.287 53.3306 167.287 56.6175C167.293 57.729 167.221 58.6135 167.072 59.2589ZM153.871 53.2291C153.458 53.6713 153.195 54.4302 153.076 55.5179H157.827C157.737 54.5199 157.528 53.7789 157.187 53.2948C156.847 52.8107 156.327 52.5657 155.627 52.5657C154.869 52.5657 154.283 52.7868 153.871 53.2291ZM191.962 47.8147C193.181 49.1055 193.791 50.9223 193.791 53.2709V68.3187H183.667V55.9063C183.667 54.9382 183.548 54.2689 183.315 53.9044C183.082 53.5398 182.681 53.3546 182.125 53.3546C181.39 53.3546 180.859 53.6354 180.518 54.1912C180.183 54.747 180.01 55.6135 180.01 56.7908V68.3187H169.886V46.3147H178.994L179.215 51.1135C179.861 49.4103 180.829 48.1135 182.12 47.2171C183.41 46.3207 184.994 45.8725 186.871 45.8725C189.046 45.8785 190.743 46.5239 191.962 47.8147ZM217.355 48.0538C219.159 49.5059 220.092 51.2749 220.151 53.3546L210.823 56.0856C210.912 53.8267 210.321 52.6972 209.06 52.6972C208.151 52.6972 207.5 53.0438 207.1 53.731C206.705 54.4183 206.508 55.6613 206.508 57.4482C206.508 59.2111 206.723 60.3944 207.147 61.0099C207.572 61.6255 208.193 61.9362 209.018 61.9362C209.633 61.9362 210.106 61.6912 210.428 61.2071C210.751 60.7231 210.942 59.994 211.002 59.0318L220.068 61.8466C220.068 63.1075 219.637 64.2609 218.771 65.3008C217.904 66.3406 216.643 67.1773 214.988 67.8107C213.333 68.4382 211.355 68.7549 209.072 68.7549C204.906 68.7549 201.745 67.7749 199.588 65.8087C197.43 63.8426 196.355 61.0099 196.355 57.3167C196.355 53.6773 197.418 50.8625 199.546 48.8665C201.673 46.8705 204.673 45.8725 208.546 45.8725C212.61 45.8785 215.55 46.6016 217.355 48.0538ZM245.365 59.2589H231.369C231.518 60.3466 231.823 61.0757 232.295 61.4581C232.761 61.8406 233.466 62.0318 234.404 62.0318C235.839 62.0318 236.723 61.3984 237.046 60.1374L245.185 62.3366C244.683 64.4462 243.464 66.0478 241.51 67.1354C239.556 68.2231 237.189 68.7609 234.404 68.7609C230.239 68.7609 227.078 67.7808 224.92 65.8147C222.763 63.8486 221.687 61.0159 221.687 57.3227C221.687 53.6832 222.751 50.8685 224.878 48.8725C227.006 46.8765 230.006 45.8785 233.878 45.8785C237.661 45.8785 240.56 46.8466 242.568 48.7828C244.576 50.7191 245.58 53.3306 245.58 56.6175C245.586 57.729 245.508 58.6135 245.365 59.2589ZM232.163 53.2291C231.751 53.6713 231.488 54.4302 231.369 55.5179H236.12C236.03 54.5199 235.821 53.7789 235.48 53.2948C235.139 52.8107 234.62 52.5657 233.92 52.5657C233.155 52.5657 232.57 52.7868 232.163 53.2291Z" fill="white"/>
<path d="M92.747 25.99C92.0119 25.99 91.4322 25.8047 91.0318 25.4402C90.6314 25.0816 90.3685 24.5258 90.231 23.743C90.1055 23.0617 90.0458 22.0876 90.0458 20.7788C90.0458 19.4701 90.1055 18.496 90.231 17.8147C90.3745 17.0318 90.6374 16.476 91.0318 16.1175C91.4382 15.7529 92.0119 15.5677 92.747 15.5677C93.482 15.5677 94.0617 15.7529 94.4621 16.1175C94.8625 16.476 95.1195 17.0318 95.2629 17.8147C95.3884 18.5019 95.4482 19.476 95.4482 20.7788C95.4482 22.0876 95.3884 23.0557 95.2629 23.743C95.1195 24.5318 94.8565 25.0816 94.4621 25.4402C94.0557 25.8107 93.482 25.99 92.747 25.99ZM92.747 16.7509C92.4482 16.7509 92.0478 16.7928 91.8266 16.996C91.6952 17.1155 91.5099 17.3904 91.3964 18.0238C91.2828 18.6334 91.229 19.5597 91.229 20.7788C91.229 21.9979 91.2828 22.9302 91.3964 23.5338C91.5099 24.1673 91.6952 24.4422 91.8266 24.5617C92.0478 24.7649 92.4541 24.8067 92.747 24.8067C93.0458 24.8067 93.4462 24.7649 93.6673 24.5617C93.7988 24.4422 93.978 24.1673 94.0976 23.5338C94.2111 22.9242 94.2649 21.9979 94.2649 20.7788C94.2649 19.5597 94.2111 18.6334 94.0976 18.0238C93.984 17.3904 93.7988 17.1155 93.6673 16.996C93.4462 16.7928 93.0458 16.7509 92.747 16.7509ZM119.896 25.6852C118.94 25.6852 118.193 25.225 117.739 24.3525C117.339 23.5876 117.141 22.476 117.141 20.9521V20.5995C117.141 19.0159 117.345 17.8744 117.769 17.1215C118.241 16.2728 118.976 15.8246 119.896 15.8246C120.865 15.8246 121.629 16.2489 122.119 17.0557C122.562 17.7908 122.777 19.0039 122.777 20.7728C122.777 22.5418 122.562 23.7549 122.114 24.472C121.629 25.2669 120.859 25.6852 119.896 25.6852ZM119.896 17.0139C119.406 17.0139 119.072 17.223 118.809 17.7011C118.492 18.2689 118.331 19.243 118.331 20.6055V20.9581C118.331 22.2609 118.486 23.223 118.791 23.8087C119.042 24.2868 119.382 24.5019 119.89 24.5019C120.446 24.5019 120.829 24.2987 121.104 23.8565C121.325 23.4979 121.588 22.6792 121.588 20.7788C121.588 18.8784 121.325 18.0418 121.104 17.6772C120.829 17.223 120.446 17.0139 119.896 17.0139ZM149.454 19.5657H143.394L143.466 18.9083C143.598 17.6832 143.908 16.8226 144.416 16.2788C144.942 15.7171 145.683 15.4302 146.61 15.4302C147.739 15.4302 148.349 15.9621 148.659 16.4103C149.06 16.99 149.305 17.8087 149.4 18.9203L149.454 19.5657ZM144.745 18.3824H148.133C148.038 17.8207 147.882 17.3844 147.679 17.0916C147.536 16.8884 147.273 16.6195 146.604 16.6195C146.006 16.6195 145.576 16.7748 145.277 17.0916C145.104 17.2768 144.888 17.6474 144.745 18.3824ZM92.747 32.4561C88.7071 32.4561 85.5219 31.3983 83.2749 29.3067C81.0159 27.2031 79.8745 24.2151 79.8745 20.4262C79.8745 16.6314 81.0159 13.6434 83.2749 11.5458C85.5219 9.45412 88.7071 8.39635 92.747 8.39635C96.7868 8.39635 99.9721 9.45412 102.219 11.5458C104.478 13.6493 105.619 16.6374 105.619 20.4262C105.619 24.2211 104.478 27.2091 102.219 29.3067C99.9721 31.3983 96.7868 32.4561 92.747 32.4561ZM92.747 9.57364C89.0179 9.57364 86.1075 10.5238 84.0876 12.4063C82.0796 14.2768 81.0637 16.972 81.0637 20.4203C81.0637 23.8685 82.0796 26.5637 84.0876 28.4342C86.1075 30.3167 89.0179 31.2669 92.747 31.2669C96.4761 31.2669 99.3864 30.3167 101.406 28.4342C103.414 26.5637 104.43 23.8685 104.43 20.4203C104.43 16.972 103.414 14.2768 101.406 12.4063C99.3864 10.5298 96.4761 9.57364 92.747 9.57364ZM118.331 41.2589H107.024V8.82663H117.07L117.237 12.1254C117.751 11.3067 118.372 10.5956 119.102 10.0159C120.452 8.9342 122.096 8.39038 123.984 8.39038C126.87 8.39038 129.123 9.46607 130.689 11.5816C132.213 13.6434 132.984 16.5717 132.984 20.2948C132.984 24.0717 132.195 27.0657 130.647 29.1812C129.052 31.3565 126.799 32.4621 123.942 32.4621C122.329 32.4621 120.936 32.0557 119.813 31.2489C119.263 30.8545 118.767 30.3884 118.331 29.8446V41.2589ZM108.213 40.0697H117.147V24.986L118.283 27.484C118.821 28.6732 119.574 29.6175 120.506 30.2808C121.426 30.9382 122.586 31.2728 123.948 31.2728C126.44 31.2728 128.317 30.3585 129.697 28.482C131.096 26.5697 131.807 23.8147 131.807 20.2948C131.807 16.8346 131.114 14.1394 129.745 12.2868C128.4 10.4641 126.518 9.57962 123.996 9.57962C122.382 9.57962 120.99 10.0398 119.855 10.9481C118.707 11.8685 117.859 13.1473 117.345 14.7609L116.353 17.8446L115.952 10.0219H108.219V40.0697H108.213ZM147.088 32.4561C142.791 32.4561 139.462 31.4103 137.203 29.3545C134.926 27.2808 133.773 24.2748 133.773 20.4203C133.773 16.6314 134.908 13.6434 137.149 11.5398C139.378 9.44814 142.546 8.3844 146.556 8.3844C150.482 8.3844 153.542 9.41826 155.657 11.4561C157.779 13.4999 158.855 16.2788 158.855 19.7151C158.855 20.8864 158.777 21.7888 158.621 22.488L158.514 22.9481H144.769C144.936 23.6234 145.169 23.9402 145.355 24.0956C145.713 24.3884 146.299 24.5378 147.094 24.5378C148.396 24.5378 148.743 24.2091 149.03 23.474L149.215 23.0019L158.598 24.98L158.46 25.5717C157.922 27.8426 156.59 29.5876 154.498 30.7529C152.454 31.8824 149.968 32.4561 147.088 32.4561ZM146.562 9.57364C142.863 9.57364 139.97 10.5238 137.968 12.4063C135.978 14.2768 134.968 16.972 134.968 20.4203C134.968 23.9282 135.99 26.6354 138.01 28.476C140.042 30.3286 143.102 31.2669 147.094 31.2669C149.765 31.2669 152.06 30.747 153.912 29.7131C155.538 28.8107 156.602 27.5497 157.133 25.8884L149.92 24.3705C149.388 25.3266 148.534 25.727 147.094 25.727C146.018 25.727 145.181 25.488 144.608 25.0219C144.01 24.5378 143.639 23.6952 143.472 22.4402L143.382 21.7649H157.558C157.635 21.2211 157.677 20.5338 157.677 19.7211C157.677 16.6195 156.727 14.1274 154.845 12.3167C152.956 10.494 150.171 9.57364 146.562 9.57364ZM185.353 32.0139H174.046V19.0159C174.046 17.9043 173.884 17.486 173.789 17.3366C173.741 17.2589 173.61 17.0617 173.102 17.0617C172.414 17.0617 172.145 17.3724 172.002 17.6115C171.811 17.9282 171.584 18.5796 171.584 19.9003V32.0258H160.277V8.83858H170.55L170.693 11.9701C171.267 11.1155 171.96 10.4043 172.767 9.84854C174.153 8.88639 175.869 8.40233 177.859 8.40233C180.189 8.40233 182.042 9.11946 183.374 10.5238C184.695 11.9222 185.365 13.8944 185.365 16.3864V32.0139H185.353ZM175.229 30.8306H184.163V16.3744C184.163 14.1932 183.602 12.496 182.496 11.3246C181.384 10.1473 179.867 9.57364 177.847 9.57364C176.102 9.57364 174.614 9.99197 173.43 10.8107C172.247 11.6294 171.339 12.8485 170.741 14.4262L169.725 17.1095L169.402 10.0099H161.454V30.8246H170.388V19.8884C170.388 18.5916 170.58 17.6414 170.98 16.984C171.422 16.2489 172.157 15.8605 173.096 15.8605C174.052 15.8605 174.542 16.3087 174.781 16.6852C175.086 17.1633 175.229 17.8983 175.229 19.0099V30.8306Z" fill="white"/>
<path d="M141.327 73.6733V82.2012C141.327 83.8685 140.873 85.1414 139.97 86.0079C139.068 86.8745 137.795 87.3107 136.151 87.3107C134.508 87.3107 133.235 86.8745 132.327 86.0079C131.418 85.1414 130.964 83.8685 130.964 82.2012V73.6733H131.98V81.998C131.98 83.4382 132.339 84.5259 133.05 85.2669C133.761 86.0079 134.795 86.3785 136.151 86.3785C137.508 86.3785 138.542 86.0079 139.247 85.2669C139.952 84.5259 140.305 83.4382 140.305 81.998V73.6733H141.327ZM158.161 73.6733V87.1075H157.181V77.0916L157.301 74.6474H157.283L152.377 87.1075H151.438L146.532 74.6474H146.514L146.633 77.0916V87.1075H145.659V73.6733H147.183L151.235 83.8506L151.904 85.9063H151.922L152.574 83.8685L156.626 73.6733H158.161ZM167.341 87.2689C166.217 87.2689 165.237 87.0299 164.412 86.5577C163.582 86.0797 162.948 85.4044 162.5 84.5319C162.052 83.6593 161.831 82.6135 161.831 81.4063C161.831 80.1992 162.052 79.1593 162.5 78.2809C162.948 77.4083 163.588 76.733 164.412 76.255C165.237 75.7828 166.217 75.5438 167.341 75.5438C168.482 75.5438 169.462 75.7828 170.281 76.255C171.1 76.733 171.739 77.4024 172.181 78.2809C172.63 79.1534 172.851 80.1992 172.851 81.4063C172.851 82.6135 172.624 83.6534 172.181 84.5319C171.733 85.4044 171.1 86.0797 170.281 86.5577C169.462 87.0358 168.482 87.2689 167.341 87.2689ZM167.341 86.3964C168.261 86.3964 169.062 86.1932 169.731 85.7988C170.4 85.3984 170.92 84.8247 171.291 84.0777C171.655 83.3307 171.841 82.4402 171.841 81.4123C171.841 80.3665 171.655 79.4761 171.291 78.735C170.926 77.994 170.406 77.4263 169.731 77.0259C169.062 76.6255 168.261 76.4283 167.341 76.4283C166.432 76.4283 165.637 76.6315 164.956 77.0259C164.275 77.4263 163.755 77.994 163.39 78.735C163.026 79.4761 162.841 80.3665 162.841 81.4123C162.841 82.4462 163.026 83.3307 163.39 84.0777C163.755 84.8247 164.281 85.3984 164.956 85.7988C165.637 86.1932 166.432 86.3964 167.341 86.3964ZM185.58 75.7111V87.1135H184.217L178.008 78.0538L177.237 76.7928H177.219L177.279 78.0358V87.1135H176.281V75.7111H177.643L183.769 84.6693L184.624 86.0318H184.641L184.582 84.7888V75.7111H185.58ZM198.016 75.7111V76.5836H188.305V75.7111H198.016ZM193.683 76.0936V87.1075H192.667V76.0936H193.683ZM200.747 87.1075V75.7052H205.289C206.496 75.7052 207.452 75.992 208.157 76.5717C208.863 77.1454 209.215 77.9462 209.215 78.9621C209.215 79.9781 208.863 80.7789 208.157 81.3526C207.452 81.9263 206.496 82.2191 205.289 82.2191H201.769V87.1075H200.747ZM201.763 81.3466H205.265C206.215 81.3466 206.938 81.1434 207.44 80.737C207.942 80.3307 208.193 79.739 208.193 78.9681C208.193 78.2091 207.942 77.6235 207.44 77.2052C206.938 76.7928 206.209 76.5836 205.265 76.5836H201.763V81.3466ZM208.641 87.1075L205.163 81.9562L206.018 81.5259L209.843 87.1016H208.641V87.1075ZM212.855 87.1075V75.7052H221.078V76.5777H213.871V80.8745H219.572V81.747H213.871V86.2231H221.365V87.0956H212.855V87.1075ZM217.845 70.8824H218.926L217.235 74.0199H216.398L217.845 70.8824ZM222.93 87.1075L227.651 75.7052H228.853L233.598 87.1075H232.516L228.709 77.8267L228.261 76.6434L227.813 77.8267L224.006 87.1075H222.93ZM225.07 83.5637V82.6912H231.44V83.5637H225.07ZM237.285 86.235H244.39V87.1075H236.263V75.7052H237.279V86.235H237.285Z" fill="white"/>
</svg>
