<?xml version="1.0" encoding="UTF-8" standalone="no"?>
<svg
   xmlns:dc="http://purl.org/dc/elements/1.1/"
   xmlns:cc="http://creativecommons.org/ns#"
   xmlns:rdf="http://www.w3.org/1999/02/22-rdf-syntax-ns#"
   xmlns:svg="http://www.w3.org/2000/svg"
   xmlns="http://www.w3.org/2000/svg"
   xmlns:sodipodi="http://sodipodi.sourceforge.net/DTD/sodipodi-0.dtd"
   xmlns:inkscape="http://www.inkscape.org/namespaces/inkscape"
   width="46.783905mm"
   height="14.882993mm"
   viewBox="0 0 46.783905 14.882993"
   version="1.1"
   id="svg951"
   sodipodi:docname="osum-abbr.svg"
   inkscape:version="1.0.1 (3bc2e813f5, 2020-09-07)">
  <sodipodi:namedview
     pagecolor="#ffffff"
     bordercolor="#666666"
     borderopacity="1"
     objecttolerance="10"
     gridtolerance="10"
     guidetolerance="10"
     inkscape:pageopacity="0"
     inkscape:pageshadow="2"
     inkscape:window-width="1918"
     inkscape:window-height="1054"
     id="namedview11"
     showgrid="false"
     inkscape:zoom="3.4707393"
     inkscape:cx="210.31821"
     inkscape:cy="129.76027"
     inkscape:window-x="0"
     inkscape:window-y="24"
     inkscape:window-maximized="1"
     inkscape:current-layer="FR-2"
     inkscape:document-rotation="0"
     fit-margin-top="0"
     fit-margin-left="0"
     fit-margin-right="0"
     fit-margin-bottom="0" />
  <defs
     id="defs945">
    <clipPath
       clipPathUnits="userSpaceOnUse"
       id="clipPath17">
      <rect
         style="fill:#ffffff;stroke-width:1.88976"
         id="rect19"
         width="50.870094"
         height="62.219997"
         x="76.392967"
         y="79.836937" />
    </clipPath>
  </defs>
  <metadata
     id="metadata948">
    <rdf:RDF>
      <cc:Work
         rdf:about="">
        <dc:format>image/svg+xml</dc:format>
        <dc:type
           rdf:resource="http://purl.org/dc/dcmitype/StillImage" />
        <dc:title></dc:title>
      </cc:Work>
    </rdf:RDF>
  </metadata>
  <g
     id="layer1"
     transform="translate(-14.063391,-90.461719)">
    <g
       id="FR-2"
       transform="matrix(0.26458333,0,0,0.26458333,1.3675129,66.509081)"
       style="fill:#000000">
      <g
         id="g856"
         transform="matrix(0.43470388,0,0,0.43470388,27.125408,67.07521)">
        <path
           style="fill:#0047b6;fill-opacity:1"
           d="m 120.54442,113.42741 c 4.57,9.9 1.62,20.81 -7.7,28.48 -9.32,7.67 -20.599997,8.46 -29.429997,2.06 -1.01,-0.77 -1.98,-1.59 -2.89,-2.45 l 11.14,-9.13 -2.09,-2.55 -0.05,-0.07 c -0.14,-0.17 -0.27,-0.35 -0.41,-0.53 -0.02,-0.03 -0.04,-0.06 -0.07,-0.09 -0.01,-0.02 -0.03,-0.04 -0.04,-0.05 l -0.39,-0.54 c -1.06,-1.48 -2,-3.07 -2.81,-4.75 -4.54,-9.92 -1.56,-20.82 7.78,-28.460002 9.349997,-7.64 20.629997,-8.39 29.439997,-1.96 0.99,0.76 1.94,1.56 2.83,2.42 l -11.11,9.100002 2.04,2.56 c 0.14,0.17 0.28,0.35 0.42,0.54 l 0.52,0.71 c 1.05,1.43 2,3.02 2.82,4.71 z"
           id="path67" />
        <g
           id="g844"
           transform="translate(-0.77443256,24.313738)">
          <path
             style="fill:#0047b6;fill-opacity:1"
             d="m 155.05885,62.84126 c -2.67,-6.7 -6.53,-12.61 -11.47,-17.58 -4.95,-4.97 -10.82,-8.84 -17.46,-11.5 -6.83,-2.74 -14.28,-4.12 -22.16,-4.12 -7.879995,0 -15.339995,1.39 -22.159995,4.12 -6.64,2.66 -12.52,6.53 -17.46,11.5 -4.95,4.97 -8.81,10.88 -11.47,17.58 -2.47,6.2 -3.85,12.93 -4.12,20.03 l 13.67,0.02 c 0.17,-0.96 0.37,-1.91 0.6,-2.86 l 0.03,-0.13 0.03,-0.13 c 1.18,-4.5 3.06,-8.68 5.6,-12.43 2.54,-3.75 5.7,-7.01 9.39,-9.68 7.22,-5.23 16.17,-7.99 25.889995,-7.99 9.72,0 18.67,2.76 25.89,7.99 3.69,2.67 6.85,5.93 9.39,9.68 2.54,3.75 4.42,7.93 5.6,12.43 l 0.03,0.13 0.03,0.13 c 0.23,0.95 0.43,1.9 0.6,2.86 l 13.67,-0.02 c -0.26,-7.1 -1.65,-13.82 -4.12,-20.03 z"
             id="path65" />
          <path
             style="fill:#0047b6;fill-opacity:1"
             d="m 159.17885,105.81126 -13.67,-0.02 c -0.17,0.96 -0.37,1.91 -0.6,2.86 l -0.03,0.13 -0.03,0.13 c -1.18,4.5 -3.06,8.68 -5.6,12.43 -2.54,3.75 -5.7,7.01 -9.39,9.68 -7.22,5.23 -16.17,7.99 -25.89,7.99 -9.719995,0 -18.669995,-2.76 -25.889995,-7.99 -3.69,-2.67 -6.85,-5.93 -9.39,-9.68 -2.54,-3.75 -4.42,-7.93 -5.6,-12.43 l -0.03,-0.13 -0.03,-0.13 c -0.23,-0.95 -0.43,-1.9 -0.6,-2.86 l -13.67,0.02 c 0.27,7.1 1.65,13.82 4.12,20.03 2.67,6.7 6.53,12.61 11.47,17.58 4.95,4.97 10.82,8.84 17.46,11.5 6.83,2.74 14.28,4.12 22.159995,4.12 7.88,0 15.34,-1.39 22.16,-4.12 6.64,-2.66 12.52,-6.53 17.46,-11.5 4.95,-4.97 8.81,-10.88 11.47,-17.58 2.47,-6.21 3.86,-12.94 4.12,-20.03 z"
             id="path4-6" />
        </g>
      </g>
      <text
         xml:space="preserve"
         style="font-style:normal;font-weight:normal;font-size:40px;line-height:1.25;font-family:sans-serif;fill:#0047b6;fill-opacity:1;stroke:none"
         x="105.72561"
         y="131.855"
         id="text27"><tspan
           sodipodi:role="line"
           id="tspan25"
           x="105.72561"
           y="131.855"
           style="font-style:normal;font-variant:normal;font-weight:900;font-stretch:normal;font-family:'Work Sans';-inkscape-font-specification:'Work Sans Heavy';fill:#0047b6;fill-opacity:1">OSUM</tspan></text>
    </g>
  </g>
</svg>
